<svg class="logo-main" id="logo" viewBox="0 0 500 62.8">
  <g id="logo-theme">
    <path d="M19.4 12.1H0v-5h44.5v5H25.2v50.1h-5.8z"/>
    <path d="M86.1 25c3.1 3 4.6 7.4 4.6 13.2v24h-5.6V38.7c0-4.3-1-7.6-3.2-9.8s-5.2-3.4-9.2-3.4-8 1.3-10.6 4-3.9 6.3-3.9 10.9v21.8h-5.6V3.8h5.6V28a14.9 14.9 0 0 1 6.3-5.6 21 21 0 0 1 9.2-1.9c5.2 0 9.4 1.5 12.4 4.5z"/>
    <path d="M142.1 43.2h-34.6a14.9 14.9 0 0 0 4.9 10.4 16.4 16.4 0 0 0 11.4 4 18.7 18.7 0 0 0 7.1-1.4 14.5 14.5 0 0 0 5.5-4l3.2 3.6a16.7 16.7 0 0 1-6.9 5 22.7 22.7 0 0 1-9.1 1.8 23.4 23.4 0 0 1-11.3-2.8 18.9 18.9 0 0 1-7.6-7.5 20.7 20.7 0 0 1-2.8-10.8 22.8 22.8 0 0 1 2.6-10.9 19.5 19.5 0 0 1 7.3-7.5 21.7 21.7 0 0 1 20.6 0 18.6 18.6 0 0 1 7.2 7.5 22.5 22.5 0 0 1 2.6 10.9zm-30-14.1a14.9 14.9 0 0 0-4.6 9.9h29.3a14.5 14.5 0 0 0-4.6-9.9 15.2 15.2 0 0 0-20.1 0z"/>
    <path d="M217.4 24.9c3 3 4.5 7.4 4.5 13.3v24h-5.6V38.7c0-4.3-1-7.6-3.1-9.8s-5-3.4-8.8-3.4-7.7 1.3-10.1 4-3.7 6.3-3.7 10.9v21.8H185V38.7c0-4.3-1-7.6-3.1-9.8s-5-3.4-8.9-3.4-7.6 1.3-10.1 4-3.7 6.3-3.7 10.9v21.8h-5.6V20.8h5.3v7.5a15.7 15.7 0 0 1 6.2-5.8 18.7 18.7 0 0 1 9-2 17.2 17.2 0 0 1 9 2.2 12.6 12.6 0 0 1 5.7 6.5 16.9 16.9 0 0 1 6.6-6.4 19.7 19.7 0 0 1 9.8-2.3c5.2 0 9.3 1.5 12.2 4.4z"/>
    <path d="M273.3 43.2h-34.6a14.5 14.5 0 0 0 4.9 10.4 16.3 16.3 0 0 0 11.3 4 18 18 0 0 0 7.1-1.4 14.8 14.8 0 0 0 5.6-4l3.2 3.6a18 18 0 0 1-6.9 5 22.7 22.7 0 0 1-9.1 1.8 23.1 23.1 0 0 1-11.3-2.8 19.8 19.8 0 0 1-7.7-7.5 21.6 21.6 0 0 1-2.7-10.8 21.7 21.7 0 0 1 2.6-10.9 20 20 0 0 1 7.2-7.5 21.4 21.4 0 0 1 10.4-2.6 20.7 20.7 0 0 1 10.3 2.6 20 20 0 0 1 7.2 7.5 22.5 22.5 0 0 1 2.6 10.9zm-30-14.1a14.5 14.5 0 0 0-4.6 9.9H268a14.9 14.9 0 0 0-4.6-9.9 14 14 0 0 0-10.1-3.8 13.7 13.7 0 0 0-10 3.8z"/>
  </g>
  <g id="logo-basic">
    <path d="M324 8.7a14.9 14.9 0 0 1 7.1 4.8 11.5 11.5 0 0 1 2.6 7.4 12.1 12.1 0 0 1-2.6 7.6 13 13 0 0 1-7 4.4 13.4 13.4 0 0 1 8.3 4.8 13.8 13.8 0 0 1 3.1 9.1 13.8 13.8 0 0 1-2.6 8.2 16.4 16.4 0 0 1-7.4 5.3 32.2 32.2 0 0 1-11.3 1.9H287V7h26.2A31.8 31.8 0 0 1 324 8.7zm-6.9 18.8a5 5 0 0 0 1.8-4.1 4.5 4.5 0 0 0-1.8-3.8 6.3 6.3 0 0 0-4.7-1.3h-11V29h11a6.8 6.8 0 0 0 4.7-1.5zm1.3 21.9a5 5 0 0 0 2.2-4.4 4.7 4.7 0 0 0-2.2-4.1 10.7 10.7 0 0 0-6-1.5h-11V51h11a9.9 9.9 0 0 0 6-1.6z"/>
    <path d="M386.2 19.6v42.6h-14v-5.4a15.2 15.2 0 0 1-5.4 4.4 16.4 16.4 0 0 1-7.1 1.5 19.9 19.9 0 0 1-10.4-2.7 18.7 18.7 0 0 1-6.9-7.8 25 25 0 0 1-2.5-11.5 25.1 25.1 0 0 1 2.4-11.3 17.6 17.6 0 0 1 6.9-7.6 19.9 19.9 0 0 1 10.4-2.7 15.8 15.8 0 0 1 7.2 1.6 15.2 15.2 0 0 1 5.4 4.4v-5.5zm-16.8 29.6a11.1 11.1 0 0 0 2.8-6.7v-2.8a10.8 10.8 0 0 0-2.8-6.7 8.1 8.1 0 0 0-6.2-2.5 8.2 8.2 0 0 0-6.7 2.9 11.3 11.3 0 0 0-2.5 7.7 11.1 11.1 0 0 0 2.5 7.6 8.3 8.3 0 0 0 6.7 3 8.1 8.1 0 0 0 6.2-2.5z"/>
    <path d="M411.8 28.7a5 5 0 0 0-2.9.7 2 2 0 0 0-1.1 2 2.7 2.7 0 0 0 1.7 2.3 33.4 33.4 0 0 0 5.5 1.9 59.9 59.9 0 0 1 7.6 2.6 14.3 14.3 0 0 1 5.2 3.9A10.4 10.4 0 0 1 430 49a11.6 11.6 0 0 1-5 10.1c-3.3 2.5-7.6 3.7-13 3.7a35.8 35.8 0 0 1-10.4-1.5 29.5 29.5 0 0 1-8.8-4.6l4.4-9a30.4 30.4 0 0 0 7.6 3.9 24 24 0 0 0 7.5 1.4 7.4 7.4 0 0 0 3.3-.7 2.2 2.2 0 0 0 1.2-1.9 2.8 2.8 0 0 0-1.7-2.5 35.2 35.2 0 0 0-5.6-1.9 61.4 61.4 0 0 1-7.4-2.6 15.8 15.8 0 0 1-5.1-3.9 10.4 10.4 0 0 1-2.1-6.8 11.9 11.9 0 0 1 4.9-10.1c3.2-2.4 7.4-3.6 12.5-3.6a33.1 33.1 0 0 1 17.7 4.9l-4.7 9.1c-5.5-2.8-10-4.3-13.5-4.3z"/>
    <path d="M449.8 2.1a7.7 7.7 0 0 1 2 5.4 7.6 7.6 0 0 1-2 5.3 7.9 7.9 0 0 1-10.7 0 7.2 7.2 0 0 1-2-5.3 7.2 7.2 0 0 1 2-5.4 7.9 7.9 0 0 1 10.7 0zm-12.2 17.5h13.9v42.6h-13.9z"/>
    <path d="M481.3 30.7a7.3 7.3 0 0 0-6.1 2.9 11.1 11.1 0 0 0-2.3 7.4 11.2 11.2 0 0 0 2.3 7.5 7.5 7.5 0 0 0 6.1 2.8q5.8 0 8.4-4.8l10.3 5.9a17.4 17.4 0 0 1-7.6 7.6 25.4 25.4 0 0 1-11.8 2.6 24.6 24.6 0 0 1-11.4-2.6 18.8 18.8 0 0 1-7.7-7.6 22.8 22.8 0 0 1-2.7-11.3 24.2 24.2 0 0 1 2.7-11.6 19.3 19.3 0 0 1 7.8-7.7 23.5 23.5 0 0 1 11.5-2.7 23.3 23.3 0 0 1 11.3 2.7 18.3 18.3 0 0 1 7.7 7.4l-10.1 5.9a9.7 9.7 0 0 0-8.4-4.4z"/>
  </g>
</svg>
